# xmcd
#
# Track frame offsets:
#       150
#       17025
#       33585
#       50108
#       67423
#       81795
#       99367
#       120863
#       135787
#       154341
#       170432
#       186606
#       205171
#       221440
#       236468
#       249799
#       263815
#       280807
#       299612
#       313780
#
# Disc length: 4426 seconds
#
# Revision: 1
# Processed by: cddbd v1.5.1PL2 Copyright (c) Steve Scherf et al.
# Submitted via: MusiCat 1.1
#
DISCID=24114814
DTITLE=Various Artist - De zomer top 100 - Cd 4
DYEAR=1900
DGENRE=
TTITLE0=Cher - dové Lámore
TTITLE1=Kool and The gang 
TTITLE2=Whigfield - Saterday Night
TTITLE3=Negrocan - Cadaa Vez
TTITLE4=Sandprpers - Guantanamaera
TTITLE5=Third world - Now thad we found love
TTITLE6=Tatjana - Baila Balina
TTITLE7=The mavericks La Mucara
TTITLE8=Buster Pointdexter and His Banshees of blue - Hot hot hot
TTITLE9=Incognito Always There
TTITLE10=Mink Deville-Demasiado Corazon
TTITLE11=Loona-Hijo de la luna
TTITLE12=MR.President-Coco jamboo
TTITLE13=The Saragossa band-Agadou
TTITLE14=Patty Pravo-La Bambola
TTITLE15=Rumba tres-Baila mi rumba
TTITLE16=Los Incas-El condor passa
TTITLE17=Margareth Singana-We are growing theme for shaka zulu
TTITLE18=Johnny Nash-Tears on my pillow(I can take it)
TTITLE19=Dennis Azor-Ali li la
EXTD=\n\n
EXTT0=
EXTT1=
EXTT2=
EXTT3=
EXTT4=
EXTT5=
EXTT6=
EXTT7=
EXTT8=
EXTT9=
EXTT10=
EXTT11=
EXTT12=
EXTT13=
EXTT14=
EXTT15=
EXTT16=
EXTT17=
EXTT18=
EXTT19=
PLAYORDER=
